<?xml version="1.0" encoding="UTF-8"?><svg id="_レイヤー_2" xmlns="http://www.w3.org/2000/svg" viewBox="0 0 221.99 22.59"><defs><style>.cls-1{fill:#00a3df;}.cls-2{fill:#fff;}.cls-3{fill:#97a8d5;}.cls-4{fill:#231815;}.cls-5{fill:#427bbf;}</style></defs><g id="_文字"><g><g><path class="cls-4" d="M0,.98H16.35v3.12h-6.42V21.59h-3.54V4.1H0V.98Z"/><path class="cls-4" d="M28.94,14.98c0,.58,.08,1.14,.24,1.67,.16,.54,.4,1.01,.72,1.41,.32,.4,.73,.73,1.22,.97,.49,.24,1.07,.36,1.75,.36,.94,0,1.7-.21,2.28-.62,.58-.41,1-1.03,1.29-1.86h3.05c-.17,.81-.46,1.53-.88,2.16-.42,.64-.91,1.17-1.5,1.6s-1.24,.76-1.97,.98c-.73,.22-1.48,.33-2.28,.33-1.15,0-2.17-.19-3.05-.58-.89-.38-1.64-.92-2.25-1.62-.61-.69-1.08-1.52-1.39-2.48-.31-.96-.47-2.02-.47-3.17,0-1.06,.17-2.06,.5-3.02,.33-.95,.8-1.79,1.41-2.51,.61-.72,1.35-1.29,2.22-1.72,.87-.42,1.85-.63,2.94-.63,1.15,0,2.18,.25,3.1,.74s1.67,1.14,2.28,1.95,1.04,1.74,1.32,2.79c.27,1.05,.34,2.13,.21,3.25h-10.75Zm7.52-2.16c-.04-.52-.15-1.02-.33-1.5-.18-.48-.42-.9-.74-1.26-.31-.36-.69-.64-1.13-.87-.44-.22-.94-.33-1.48-.33s-1.08,.1-1.54,.3c-.46,.2-.86,.48-1.19,.84s-.59,.77-.79,1.26c-.2,.48-.31,1-.33,1.56h7.52Z"/><path class="cls-4" d="M63.33,11.66c-.13-.92-.49-1.62-1.09-2.09-.59-.47-1.34-.71-2.25-.71-.42,0-.86,.07-1.33,.22s-.9,.41-1.3,.81c-.4,.39-.73,.94-.99,1.65-.26,.7-.4,1.62-.4,2.76,0,.62,.07,1.23,.21,1.85,.14,.62,.37,1.16,.68,1.65s.71,.87,1.2,1.17c.49,.3,1.08,.45,1.78,.45,.94,0,1.72-.3,2.33-.9,.61-.6,.99-1.43,1.15-2.51h3.22c-.3,1.94-1.02,3.43-2.16,4.46-1.14,1.03-2.65,1.54-4.54,1.54-1.15,0-2.16-.2-3.04-.59s-1.62-.93-2.22-1.62c-.6-.68-1.06-1.5-1.37-2.44-.31-.94-.47-1.96-.47-3.06s.15-2.16,.45-3.15c.3-.98,.75-1.83,1.36-2.55,.6-.72,1.35-1.29,2.25-1.7,.9-.41,1.95-.62,3.15-.62,.85,0,1.65,.11,2.42,.33s1.44,.55,2.04,1c.59,.44,1.08,1,1.46,1.67,.38,.67,.6,1.47,.68,2.4h-3.22Z"/><path class="cls-4" d="M80.5,.98h3.22v7.65h.06c.4-.67,.99-1.24,1.77-1.69,.78-.45,1.65-.68,2.62-.68,1.6,0,2.87,.42,3.79,1.27s1.39,2.12,1.39,3.81v10.25h-3.22V12.21c-.04-1.17-.28-2.02-.74-2.55-.45-.53-1.16-.79-2.12-.79-.55,0-1.04,.1-1.47,.3-.43,.2-.8,.48-1.1,.84-.3,.36-.54,.77-.71,1.26-.17,.48-.25,.99-.25,1.53v8.8h-3.22V.98Z"/><path class="cls-4" d="M112.18,.98h13.94v3.12h-10.41v5.4h9.14v2.94h-9.14v9.15h-3.54V.98Z"/><path class="cls-4" d="M141.17,.98h3.54V12.99c0,.69,.03,1.4,.1,2.11,.07,.71,.25,1.35,.57,1.92,.31,.57,.78,1.03,1.41,1.4,.63,.37,1.52,.55,2.67,.55s2.04-.18,2.67-.55c.63-.37,1.1-.83,1.41-1.4,.31-.57,.5-1.21,.57-1.92,.07-.71,.1-1.41,.1-2.11V.98h3.54V14.17c0,1.33-.2,2.48-.59,3.46s-.96,1.8-1.68,2.47c-.73,.66-1.6,1.16-2.62,1.49s-2.15,.49-3.39,.49-2.38-.16-3.39-.49c-1.02-.33-1.89-.82-2.62-1.49-.73-.66-1.29-1.49-1.68-2.47s-.59-2.14-.59-3.46V.98Z"/><path class="cls-4" d="M174.26,.98h3.54V18.47h10.27v3.12h-13.8V.98Z"/></g><g><rect class="cls-3" x="209.2" width="2.97" height="9.37"/><rect class="cls-1" x="212.62" y="9.81" width="9.37" height="2.97"/><rect class="cls-5" x="199.39" y="9.81" width="9.37" height="2.97"/><rect x="209.2" y="13.23" width="2.97" height="9.37"/><rect class="cls-2" x="209.24" y="9.84" width="2.91" height="2.91"/></g></g></g></svg>